<svg width="138" height="124" viewBox="0 0 138 124" fill="none" xmlns="http://www.w3.org/2000/svg">
<g clip-path="url(#clip0_304_180)">
<path d="M35.138 122.064C34.5929 122.064 34.0527 121.961 33.5457 121.76C28.3046 119.718 23.4414 116.814 19.1568 113.168C11.2805 106.436 5.50632 97.0464 2.45535 86.0199C-0.18458 76.2933 -0.702763 66.1126 0.935931 56.1682C2.92068 44.4314 8.03936 33.7186 16.1483 24.3232C20.3425 19.435 25.1873 15.1455 30.5474 11.5746C38.0187 6.68434 46.4004 3.35309 55.1899 1.78055C56.3247 1.57285 57.4956 1.82457 58.4449 2.48034C59.3942 3.1361 60.0442 4.1422 60.2519 5.27728C60.4595 6.41237 60.2079 7.58348 59.5522 8.53297C58.8966 9.48247 57.8907 10.1326 56.7558 10.3403C49.1132 11.7007 41.8241 14.5915 35.3262 18.8393C30.2439 22.1863 13.3523 34.864 9.5082 57.6191C8.07804 66.3086 8.53205 75.2042 10.8395 83.7029C13.4271 93.0518 18.2565 100.956 24.8096 106.559C28.3602 109.575 32.3891 111.978 36.7303 113.668C37.6733 114.039 38.4574 114.727 38.9471 115.614C39.4369 116.502 39.6016 117.532 39.4129 118.528C39.2241 119.523 38.6937 120.422 37.9133 121.068C37.1328 121.715 36.1513 122.068 35.138 122.068V122.064Z" fill="white"/>
<path d="M47.2234 123.814C46.557 123.815 45.8995 123.662 45.3014 123.368C44.7034 123.074 44.1808 122.647 43.774 122.119C43.3672 121.591 43.0871 120.977 42.9551 120.323C42.8232 119.67 42.8431 118.995 43.0132 118.351L58.8891 58.0361C59.4678 54.574 60.874 51.3028 62.9881 48.501C69.2701 40.2145 79.1737 39.5447 82.0567 39.5366H82.1255L122.3 40.0688C119.056 35.2723 115.365 30.7944 111.276 26.695C101.536 17.0162 90.7989 11.2592 79.3659 9.55735C75.693 9.01933 71.9714 8.89444 68.2707 9.18501C67.6992 9.23306 67.1238 9.16758 66.5776 8.99235C66.0315 8.81712 65.5254 8.53559 65.0885 8.16396C64.6515 7.79234 64.2924 7.33796 64.0317 6.82697C63.771 6.31599 63.614 5.75848 63.5695 5.18655C63.5251 4.61461 63.5942 4.03953 63.7729 3.49442C63.9516 2.9493 64.2362 2.4449 64.6105 2.01025C64.9849 1.5756 65.4414 1.21928 65.9539 0.961795C66.4665 0.704313 67.0249 0.550752 67.597 0.50995C71.9476 0.168696 76.3227 0.315986 80.6405 0.949065C93.9511 2.92003 106.321 9.50676 117.408 20.5231C123.609 26.6849 129.345 34.2409 133.982 42.3777L137.753 48.9867L82.0486 48.2481C80.6324 48.2481 73.8567 48.5759 69.9216 53.7684C68.6219 55.5047 67.7687 57.5338 67.4371 59.6772L67.4048 59.8796L51.4215 120.587C51.1741 121.512 50.6287 122.329 49.8697 122.913C49.1108 123.496 48.1807 123.813 47.2234 123.814Z" fill="white"/>
<path d="M102.372 123.078L55.3594 123.011L67.5734 77.9723L130.4 78.6441L128.983 84.045C127.739 88.7613 126.008 93.3355 123.818 97.694C119.043 107.193 112.225 115.423 103.554 122.159L102.372 123.078ZM66.7317 114.326L99.3739 114.37C106.467 108.611 112.071 101.693 116.047 93.7865C117.118 91.6568 118.064 89.4662 118.88 87.2261L74.2155 86.7384L66.7317 114.326Z" fill="white"/>
</g>
<defs>
<clipPath id="clip0_304_180">
<rect width="137.756" height="123.814" fill="white"/>
</clipPath>
</defs>
</svg>
